<?xml version="1.0" encoding="UTF-8"?>
<svg version="1.1" xmlns="http://www.w3.org/2000/svg" width="199" height="210">
<path d="M0 0 C1.78956429 1.3717365 3.56037549 2.76825334 5.3125 4.1875 C6.23933594 4.93773438 7.16617188 5.68796875 8.12109375 6.4609375 C18.4056643 15.27628369 25.25917326 25.62904724 30.3125 38.1875 C30.68117187 39.04214844 31.04984375 39.89679687 31.4296875 40.77734375 C38.60295983 57.76805083 39.5053356 80.30541599 33.70703125 97.84375 C28.4614294 110.42143959 22.4469068 122.79463517 12.3125 132.1875 C11.48878906 133.07501953 11.48878906 133.07501953 10.6484375 133.98046875 C5.33618165 139.6315722 -0.6691565 144.7896537 -7.6875 148.1875 C-10.19238281 148.13085938 -10.19238281 148.13085938 -12.6875 147.1875 C-14.20141602 144.72241211 -14.20141602 144.72241211 -15.44140625 141.46484375 C-15.90353516 140.28599609 -16.36566406 139.10714844 -16.84179688 137.89257812 C-17.31203466 136.63703182 -17.78143005 135.3811697 -18.25 134.125 C-19.18599556 131.69553146 -20.12473454 129.26711783 -21.06640625 126.83984375 C-21.51097168 125.68556885 -21.95553711 124.53129395 -22.41357422 123.34204102 C-23.48015668 120.70093101 -24.61905572 118.18027281 -25.91796875 115.6484375 C-29.94232326 107.77740418 -32.02652943 99.01074747 -30.6875 90.1875 C-29.51664682 86.86195173 -28.16802783 83.64075572 -26.8125 80.38671875 C-24.01974431 72.44481975 -25.15043207 63.75080482 -28.6875 56.1875 C-33.52098643 48.78382634 -39.2155228 45.08832929 -47.75390625 43.28515625 C-51.71929844 42.50350166 -55.69687108 41.82677551 -59.6875 41.1875 C-59.6875 41.8475 -59.6875 42.5075 -59.6875 43.1875 C-58.2025 43.6825 -58.2025 43.6825 -56.6875 44.1875 C-54.89796311 46.21486837 -53.25311252 48.22551229 -51.625 50.375 C-50.95500977 51.22288086 -50.95500977 51.22288086 -50.27148438 52.08789062 C-46.21873409 57.37645714 -44.18733564 62.51171707 -44.3671875 69.23046875 C-45.04222612 73.35479005 -47.62051132 76.04147512 -50.375 79 C-55.37869808 81.56946658 -60.13531574 81.67902501 -65.4375 80 C-73.57838859 75.45988906 -79.01748943 68.44511353 -84.6875 61.1875 C-87.51295934 66.83841868 -86.333237 77.18782299 -84.5625 83.125 C-81.75229407 90.05248438 -77.92117994 95.16759331 -71.02734375 98.2109375 C-70.25519531 98.53320312 -69.48304687 98.85546875 -68.6875 99.1875 C-66.65596007 100.08018732 -64.63564514 100.9986969 -62.625 101.9375 C-61.66464844 102.36546875 -60.70429687 102.7934375 -59.71484375 103.234375 C-51.98103447 108.22392937 -48.3358751 115.19720807 -45.0625 123.5625 C-44.34428791 125.34241692 -43.62293619 127.12107021 -42.8984375 128.8984375 C-42.53758057 129.7855542 -42.17672363 130.6726709 -41.80493164 131.58666992 C-40.74145309 134.06192381 -39.57203587 136.43340944 -38.33203125 138.82421875 C-34.73119765 145.87862963 -31.92586234 153.27281194 -29 160.625 C-28.12915906 162.81041788 -27.25702771 164.99527376 -26.38066101 167.17848206 C-25.83977752 168.52607128 -25.30203234 169.87492569 -24.76789856 171.22520447 C-23.60459137 174.12493726 -22.43006414 176.57365379 -20.6875 179.1875 C-20.6875 180.1775 -20.6875 181.1675 -20.6875 182.1875 C-25.08499533 181.66680712 -28.02776244 180.68020679 -31.734375 178.2734375 C-32.6625 177.67660156 -33.590625 177.07976562 -34.546875 176.46484375 C-35.50078125 175.83707031 -36.4546875 175.20929688 -37.4375 174.5625 C-38.3759375 173.95792969 -39.314375 173.35335937 -40.28125 172.73046875 C-45.78557718 169.16482034 -51.17520939 165.47152691 -56.48657227 161.62426758 C-60.97759303 158.69252524 -65.88421751 157.60541019 -71.05859375 156.40625 C-85.24846293 152.9806 -96.66412298 146.8186512 -107.6875 137.1875 C-108.43257812 136.60871094 -109.17765625 136.02992188 -109.9453125 135.43359375 C-124.37200969 123.79672825 -133.49491264 104.14065562 -136.6875 86.1875 C-137.08217625 81.36552683 -137.108337 76.58580386 -137.0625 71.75 C-137.07410156 70.52990234 -137.08570313 69.30980469 -137.09765625 68.05273438 C-137.05947174 56.08189118 -134.85360889 45.37350318 -129.5625 34.625 C-129.17143066 33.81708008 -128.78036133 33.00916016 -128.37744141 32.17675781 C-124.88921386 25.18914485 -120.8042245 19.11413434 -115.6875 13.1875 C-115.14996094 12.55070312 -114.61242187 11.91390625 -114.05859375 11.2578125 C-85.18053688 -20.15340725 -34.29149878 -24.00889943 0 0 Z " fill="#174DE6" transform="translate(149.6875,23.8125)"/>
<path d="M0 0 C1.78956429 1.3717365 3.56037549 2.76825334 5.3125 4.1875 C6.23933594 4.93773438 7.16617188 5.68796875 8.12109375 6.4609375 C17.24979274 14.28553664 24.7479208 23.98353288 29.3125 35.1875 C28.9825 36.1775 28.6525 37.1675 28.3125 38.1875 C27.52939453 36.66382812 27.52939453 36.66382812 26.73046875 35.109375 C21.648822 25.4992497 16.07360998 17.77791108 8.3125 10.1875 C7.61898437 9.46175781 6.92546875 8.73601563 6.2109375 7.98828125 C-9.37555124 -7.32739977 -32.24971068 -13.08165827 -53.41967773 -13.1315918 C-73.93622694 -12.85652345 -94.19612737 -4.32943061 -108.6875 10.1875 C-109.3475 10.1875 -110.0075 10.1875 -110.6875 10.1875 C-110.95304687 10.77789062 -111.21859375 11.36828125 -111.4921875 11.9765625 C-112.71840304 14.24466052 -114.02101588 15.72102098 -115.8125 17.5625 C-131.1019697 34.85454058 -135.65990471 57.05802377 -134.89746094 79.49902344 C-134.47731763 84.87881187 -133.04065182 89.89388345 -131.46484375 95.03515625 C-130.72807232 98.02296801 -130.57417934 99.37969129 -131.6875 102.1875 C-136.37316229 92.17722148 -137.02839467 82.94327326 -137 71.9375 C-137.01611328 70.70386719 -137.03222656 69.47023438 -137.04882812 68.19921875 C-137.0551623 56.15162032 -134.88808091 45.44353059 -129.5625 34.625 C-129.17143066 33.81708008 -128.78036133 33.00916016 -128.37744141 32.17675781 C-124.88921386 25.18914485 -120.8042245 19.11413434 -115.6875 13.1875 C-115.14996094 12.55070312 -114.61242187 11.91390625 -114.05859375 11.2578125 C-85.18053688 -20.15340725 -34.29149878 -24.00889943 0 0 Z " fill="#D6E6FC" transform="translate(149.6875,23.8125)"/>
<path d="M0 0 C0.66 0 1.32 0 2 0 C4.39323804 2.39323804 4.44196109 3.73148638 5 7 C5.33 7.99 5.66 8.98 6 10 C6.66 10 7.32 10 8 10 C8.268125 10.969375 8.53625 11.93875 8.8125 12.9375 C10.06628255 17.33926896 11.5264507 21.66776506 13 26 C11.02 26 9.04 26 7 26 C7 25.34 7 24.68 7 24 C5.35 24.33 3.7 24.66 2 25 C1.67 24.34 1.34 23.68 1 23 C-0.97346006 22.53952598 -2.94706123 22.07963339 -4.921875 21.625 C-7.95906359 20.71155982 -9.84184742 19.29303711 -12 17 C-12 15.68 -12 14.36 -12 13 C-12.66 12.67 -13.32 12.34 -14 12 C-14 11.01 -14 10.02 -14 9 C-11.69 9.33 -9.38 9.66 -7 10 C-7 9.34 -7 8.68 -7 8 C-6.34 8 -5.68 8 -5 8 C-4.34 8.66 -3.68 9.32 -3 10 C-2.34 10 -1.68 10 -1 10 C-1.20625 9.46375 -1.4125 8.9275 -1.625 8.375 C-2.1314747 5.16732692 -1.15400225 2.98682934 0 0 Z " fill="#134CE6" transform="translate(107,168)"/>
<path d="M0 0 C0 0.66 0 1.32 0 2 C-0.598125 2.24621094 -1.19625 2.49242187 -1.8125 2.74609375 C-4.99956005 4.5729621 -6.43432826 7.21245524 -8.4375 10.22265625 C-10.23924581 12.27214211 -11.34096284 12.62750557 -14 13 C-14 13.99 -14 14.98 -14 16 C-14.33 16.99 -14.66 17.98 -15 19 C-16.65 18.67 -18.3 18.34 -20 18 C-20.66 19.98 -21.32 21.96 -22 24 C-23.32 23.67 -24.64 23.34 -26 23 C-26.14695312 23.90492187 -26.14695312 23.90492187 -26.296875 24.828125 C-27.82576287 32.99976706 -27.82576287 32.99976706 -32 36 C-32.66 36 -33.32 36 -34 36 C-34.1134375 36.65871094 -34.226875 37.31742188 -34.34375 37.99609375 C-35.16755211 41.76694983 -36.32171862 45.3896286 -37.5 49.0625 C-39.46093925 55.20864388 -41.09426327 60.60424394 -41.31640625 67.078125 C-41.35830078 68.23828125 -41.40019531 69.3984375 -41.44335938 70.59375 C-41.48267578 71.8003125 -41.52199219 73.006875 -41.5625 74.25 C-41.60568359 75.47203125 -41.64886719 76.6940625 -41.69335938 77.953125 C-41.79937355 80.9686392 -41.90143936 83.98423448 -42 87 C-41.34 87 -40.68 87 -40 87 C-40 90.3 -40 93.6 -40 97 C-39.34 97 -38.68 97 -38 97 C-37.87882812 97.63808594 -37.75765625 98.27617188 -37.6328125 98.93359375 C-37.46523438 99.75988281 -37.29765625 100.58617188 -37.125 101.4375 C-36.96257813 102.26121094 -36.80015625 103.08492188 -36.6328125 103.93359375 C-36.42398438 104.61550781 -36.21515625 105.29742187 -36 106 C-35.34 106.33 -34.68 106.66 -34 107 C-33.7525 107.99 -33.505 108.98 -33.25 110 C-32.16499051 114.26946823 -29.87860169 117.43383823 -27.33984375 120.984375 C-26 123 -26 123 -25 126 C-24.34 126.28875 -23.68 126.5775 -23 126.875 C-21 128 -21 128 -20.25 130.625 C-20.12625 131.800625 -20.12625 131.800625 -20 133 C-33.9715985 123.685601 -40.25525416 103.85122721 -43.58984375 88.23828125 C-44.16279359 83.71470588 -44.18427612 79.24284751 -44.1875 74.6875 C-44.19974609 73.78837891 -44.21199219 72.88925781 -44.22460938 71.96289062 C-44.23747647 66.03115757 -43.54425862 60.72018854 -42 55 C-41.75044556 54.02220581 -41.75044556 54.02220581 -41.49584961 53.0246582 C-37.53085488 37.97766658 -31.03806793 26.12313975 -20 15 C-19.13375 14.0925 -18.2675 13.185 -17.375 12.25 C-4.44444444 0 -4.44444444 0 0 0 Z " fill="#2C53C2" transform="translate(58,21)"/>
<path d="M0 0 C2.34387865 2.12286297 3.60351587 3.94538889 4.77758789 6.87304688 C5.09123795 7.64394653 5.404888 8.41484619 5.7280426 9.20910645 C6.05626511 10.03728882 6.38448761 10.86547119 6.72265625 11.71875 C7.06880478 12.57303589 7.41495331 13.42732178 7.77159119 14.30749512 C8.87578264 17.03548104 9.96971169 19.76742839 11.0625 22.5 C12.16032344 25.23194407 13.26032904 27.96296649 14.36412048 30.69250488 C15.05020175 32.39042917 15.73259417 34.08984968 16.41090393 35.79089355 C16.72140182 36.56179321 17.03189972 37.33269287 17.35180664 38.12695312 C17.62255508 38.80407349 17.89330353 39.48119385 18.17225647 40.17883301 C19.06370791 42.26965613 19.06370791 42.26965613 21 45 C21 45.99 21 46.98 21 48 C16.46478842 47.47771315 13.46657099 46.37367528 9.63671875 43.91015625 C8.66798828 43.29076172 7.69925781 42.67136719 6.70117188 42.03320312 C5.70666016 41.38287109 4.71214844 40.73253906 3.6875 40.0625 C2.67365234 39.41603516 1.65980469 38.76957031 0.61523438 38.10351562 C-6.85858718 33.28282563 -6.85858718 33.28282563 -8 31 C-5.03 31.33 -2.06 31.66 1 32 C1 32.66 1 33.32 1 34 C2.65 34 4.3 34 6 34 C6 34.66 6 35.32 6 36 C7.98 36 9.96 36 12 36 C11.66226563 35.41734375 11.32453125 34.8346875 10.9765625 34.234375 C7.84806476 28.48372597 6.45504231 23.56904571 5.6015625 17.109375 C4.72474485 12.57725258 2.92481674 8.58586808 1.0234375 4.3984375 C0 2 0 2 0 0 Z " fill="#95B0EB" transform="translate(108,158)"/>
<path d="M0 0 C7.25954374 13.83735367 3.26873654 35.15373783 -1.03125 49.421875 C-5.50253001 62.0502199 -12.69821269 72.46399502 -22 82 C-22.65484375 82.69351563 -23.3096875 83.38703125 -23.984375 84.1015625 C-26.85213268 87.07961855 -29.19532373 89.28335648 -33 91 C-32.67 90.01 -32.34 89.02 -32 88 C-31.34 88 -30.68 88 -30 88 C-30 87.34 -30 86.68 -30 86 C-29.34 86 -28.68 86 -28 86 C-27.95875 85.236875 -27.9175 84.47375 -27.875 83.6875 C-27.441875 82.3571875 -27.441875 82.3571875 -27 81 C-25 80 -23 79 -21 78 C-20.03093173 75.41585574 -20.03093173 75.41585574 -20 73 C-19.360625 72.87625 -18.72125 72.7525 -18.0625 72.625 C-17.0415625 72.315625 -17.0415625 72.315625 -16 72 C-15.67 71.34 -15.34 70.68 -15 70 C-14.34 70 -13.68 70 -13 70 C-13 69.01 -13 68.02 -13 67 C-12.34 67 -11.68 67 -11 67 C-10.85691406 66.21496094 -10.85691406 66.21496094 -10.7109375 65.4140625 C-9.95214472 62.8375024 -8.81494802 60.60867791 -7.57446289 58.23413086 C1.76819869 39.94038749 0.38572117 19.99815892 0 0 Z " fill="#345BBD" transform="translate(182,74)"/>
<path d="M0 0 C3.99249007 1.33083002 5.61192198 3.95216629 8.0625 7.1875 C8.50916016 7.75275391 8.95582031 8.31800781 9.41601562 8.90039062 C13.46876591 14.18895714 15.50016436 19.32421707 15.3203125 26.04296875 C14.64527388 30.16729005 12.06698868 32.85397512 9.3125 35.8125 C5.12387315 37.96341649 0.48684166 38.64131909 -4.10546875 37.45703125 C-8.70577296 35.58845408 -8.70577296 35.58845408 -10 33 C-9.2884375 33.32226562 -8.576875 33.64453125 -7.84375 33.9765625 C-3.26524926 35.62431963 1.19804827 35.60565157 6 35 C9.00197464 33.19881522 10.45166366 32.09667268 12 29 C11.38125 29.185625 10.7625 29.37125 10.125 29.5625 C8 30 8 30 6 29 C6 28.34 6 27.68 6 27 C6.66 27 7.32 27 8 27 C7.87431641 26.14728516 7.87431641 26.14728516 7.74609375 25.27734375 C7.22135128 21.29860021 6.86502803 18.49489722 7.9375 14.5625 C8.02976308 9.3035043 5.15971039 6.87088898 1.78515625 3.0390625 C0 1 0 1 0 0 Z " fill="#6B90EB" transform="translate(90,67)"/>
<path d="M0 0 C10.81542085 -0.35776201 21.81390038 2.70217928 30 10 C35.93558589 16.47651367 37.36067701 23.2955319 37.375 31.875 C37.41173828 33.02162109 37.41173828 33.02162109 37.44921875 34.19140625 C37.47553082 39.35734356 36.40708284 42.57669469 33.91699219 47.06152344 C30.93117587 53.37339287 32.18216711 62.31597126 34.1640625 68.8203125 C35.05502742 71.04523606 35.9969604 73.25088737 37.00390625 75.42578125 C38 78 38 78 37 81 C31.92940966 71.73305903 28.37793257 61.68826577 30 51 C31.17085318 47.67445173 32.51947217 44.45325572 33.875 41.19921875 C36.66775569 33.25731975 35.53706793 24.56330482 32 17 C27.16651357 9.59632634 21.4719772 5.90082929 12.93359375 4.09765625 C8.96820156 3.31600166 4.99062892 2.63927551 1 2 C0.67 2.66 0.34 3.32 0 4 C0 2.68 0 1.36 0 0 Z " fill="#D6E6FA" transform="translate(89,63)"/>
<path d="M0 0 C2.43886204 3.01648726 4.02057122 6.03932453 5.625 9.5625 C8.89831616 16.20611946 13.05642368 21.51907843 18 27 C19.03253906 28.17369141 19.03253906 28.17369141 20.0859375 29.37109375 C32.29064249 42.46052642 48.09375625 49.13020929 65.23828125 53.10546875 C66.47964844 53.40066406 67.72101563 53.69585937 69 54 C69.6604834 54.14904785 70.3209668 54.2980957 71.00146484 54.45166016 C72.91796875 54.92578125 72.91796875 54.92578125 76 56 C76.33 56.99 76.66 57.98 77 59 C78.29355827 60.37195574 79.62298702 61.71182656 81 63 C77.8475522 61.91634607 75.41106158 60.57284913 72.75 58.625 C68.73332902 56.02020397 64.627313 55.12581913 60 54.1875 C46.386342 51.33673839 34.76026018 44.73539007 24 36 C23.16082031 35.34773438 22.32164063 34.69546875 21.45703125 34.0234375 C11.77630831 26.00869944 4.32255778 14.78879394 0 3 C0 2.01 0 1.02 0 0 Z " fill="#D6E7FB" transform="translate(19,126)"/>
<path d="M0 0 C0 0.66 0 1.32 0 2 C0.66 2 1.32 2 2 2 C2 2.99 2 3.98 2 5 C2.99 5.33 3.98 5.66 5 6 C5 6.66 5 7.32 5 8 C5.825 8.639375 6.65 9.27875 7.5 9.9375 C8.325 10.618125 9.15 11.29875 10 12 C10 12.99 10 13.98 10 15 C10.66 15 11.32 15 12 15 C12 16.32 12 17.64 12 19 C8.6953208 17.58681481 6.80491413 15.92720475 4.5 13.1875 C3.90058594 12.47980469 3.30117187 11.77210937 2.68359375 11.04296875 C0.76440131 8.7141111 -1.14207754 6.37814075 -3 4 C-4.20029908 6.40059817 -4.11459743 7.89360649 -4.09765625 10.5703125 C-4.09443359 11.46621094 -4.09121094 12.36210938 -4.08789062 13.28515625 C-4.07951172 14.22230469 -4.07113281 15.15945312 -4.0625 16.125 C-4.05798828 17.06988281 -4.05347656 18.01476562 -4.04882812 18.98828125 C-4.03702357 21.32558387 -4.02055759 23.66276061 -4 26 C-4.99 25.67 -5.98 25.34 -7 25 C-7.33 17.08 -7.66 9.16 -8 1 C-5.29120665 -0.35439668 -2.99066732 -0.06501451 0 0 Z " fill="#86A4E2" transform="translate(68,81)"/>
<path d="M0 0 C0 0.33 0 0.66 0 1 C-0.53882812 0.93941406 -1.07765625 0.87882813 -1.6328125 0.81640625 C-8.4491853 0.12194821 -15.28643971 -0.33922934 -22.125 -0.75 C-23.0545752 -0.81888428 -23.98415039 -0.88776855 -24.94189453 -0.95874023 C-31.32853104 -1.30814214 -36.07832084 -0.30479131 -42 2 C-43.155 2.28875 -44.31 2.5775 -45.5 2.875 C-48.62122316 3.8782503 -50.74050692 4.99544597 -53.5 6.6875 C-56.59226 8.50148442 -58.48137798 9.34785966 -62.0625 8.8125 C-63.031875 8.544375 -64.00125 8.27625 -65 8 C-47.68624522 -5.76521495 -20.27654898 -5.72514324 0 0 Z " fill="#2F59C7" transform="translate(123,13)"/>
<path d="M0 0 C0 0.66 0 1.32 0 2 C-0.598125 2.24621094 -1.19625 2.49242187 -1.8125 2.74609375 C-4.99956005 4.5729621 -6.43432826 7.21245524 -8.4375 10.22265625 C-10.23924581 12.27214211 -11.34096284 12.62750557 -14 13 C-14 13.99 -14 14.98 -14 16 C-14.33 16.99 -14.66 17.98 -15 19 C-16.65 18.67 -18.3 18.34 -20 18 C-20.66 19.98 -21.32 21.96 -22 24 C-23.32 23.67 -24.64 23.34 -26 23 C-26.09796875 23.62648438 -26.1959375 24.25296875 -26.296875 24.8984375 C-26.44640625 25.71570313 -26.5959375 26.53296875 -26.75 27.375 C-26.88921875 28.18710937 -27.0284375 28.99921875 -27.171875 29.8359375 C-28 32 -28 32 -30.078125 33.2890625 C-30.71234375 33.52367187 -31.3465625 33.75828125 -32 34 C-31.83284832 27.48108445 -27.99153871 23.74855467 -24 19 C-23.2575 18.01 -22.515 17.02 -21.75 16 C-17.42549278 10.85656617 -7.16765144 0 0 0 Z " fill="#2250CD" transform="translate(58,21)"/>
<path d="M0 0 C1.8871875 0.0309375 1.8871875 0.0309375 3.8125 0.0625 C3.8125 0.7225 3.8125 1.3825 3.8125 2.0625 C4.369375 2.07667969 4.92625 2.09085938 5.5 2.10546875 C11.78065254 2.49800953 15.77939867 4.34595924 20.8125 8.0625 C20.4825 8.7225 20.1525 9.3825 19.8125 10.0625 C18.93207031 9.71316406 18.05164063 9.36382812 17.14453125 9.00390625 C15.98308594 8.54886719 14.82164063 8.09382813 13.625 7.625 C12.47644531 7.17253906 11.32789062 6.72007813 10.14453125 6.25390625 C4.8589997 4.36400341 0.42397209 3.95247114 -5.1875 4.0625 C-3.62382643 7.58488047 -1.49254111 10.33373994 0.9375 13.3125 C1.66195312 14.20453125 2.38640625 15.0965625 3.1328125 16.015625 C3.68710938 16.69109375 4.24140625 17.3665625 4.8125 18.0625 C4.4825 18.7225 4.1525 19.3825 3.8125 20.0625 C2.49073515 19.15924384 1.18034934 18.23932097 -0.125 17.3125 C-0.85589844 16.80203125 -1.58679688 16.2915625 -2.33984375 15.765625 C-4.43575725 13.83366245 -4.69112623 12.80092158 -5.1875 10.0625 C-5.72375 9.423125 -6.26 8.78375 -6.8125 8.125 C-8.1875 6.0625 -8.1875 6.0625 -7.875 3.3125 C-7.648125 2.57 -7.42125 1.8275 -7.1875 1.0625 C-4.43671116 0.14557039 -2.82801087 -0.04636083 0 0 Z " fill="#2E55C5" transform="translate(94.1875,59.9375)"/>
<path d="M0 0 C1.49836162 1.96852201 2.95815684 3.93680326 4.32421875 6 C7.92774578 11.28654968 11.17519581 13.5689465 17 16 C26.5842921 20.21147322 32.56428084 24.30959013 38 33.3125 C39 36 39 36 38 39 C37.56429687 38.19175781 37.12859375 37.38351563 36.6796875 36.55078125 C31.80707497 27.80750033 28.1952752 23.07603242 18.625 19.625 C11.07237417 16.86919582 5.71915445 13.16999727 1.5 6.25 C0 3 0 3 0 0 Z " fill="#D1E6FC" transform="translate(64,107)"/>
<path d="M0 0 C7.4256478 2.80970457 7.4256478 2.80970457 9.1328125 6.34765625 C9.46023437 7.24355469 9.78765625 8.13945313 10.125 9.0625 C11.14379183 12.28747567 11.14379183 12.28747567 13 15 C13.25194063 18.43020341 13.18522745 21.87413911 13.1875 25.3125 C13.19974609 26.27607422 13.21199219 27.23964844 13.22460938 28.23242188 C13.22750977 29.62750977 13.22750977 29.62750977 13.23046875 31.05078125 C13.23457764 31.90325439 13.23868652 32.75572754 13.24291992 33.6340332 C12.98180606 36.17720347 12.27889646 37.80620312 11 40 C10.01 39.67 9.02 39.34 8 39 C8.32226562 38.35546875 8.64453125 37.7109375 8.9765625 37.046875 C11.56350586 29.3452879 11.45120151 18.1975105 8.3125 10.6875 C6.41401951 7.22955338 3.94565634 4.62720701 1 2 C0.67 1.34 0.34 0.68 0 0 Z " fill="#224EBC" transform="translate(115,70)"/>
<path d="M0 0 C10.43648573 6.99557354 17.72527698 16.2142599 24 27 C24.37382812 27.63421875 24.74765625 28.2684375 25.1328125 28.921875 C26 30.5 26 30.5 27 33 C26.67 33.99 26.34 34.98 26 36 C25.47792969 34.98421875 24.95585937 33.9684375 24.41796875 32.921875 C18.44067877 21.62301987 11.39621783 13.28732693 2.3125 4.375 C0 2 0 2 0 0 Z " fill="#D6E9FC" transform="translate(152,26)"/>
<path d="M0 0 C7.6353909 0.62585171 7.6353909 0.62585171 9.34375 2.37890625 C14.84693802 7.76528132 25.48861161 9.5493167 33 10 C30.03464029 12.0164446 27.75028195 12.24601928 24.24609375 11.60546875 C15.64715914 9.28749507 7.59462159 5.61172112 0 1 C0 0.67 0 0.34 0 0 Z " fill="#365AC7" transform="translate(53,167)"/>
<path d="M0 0 C1.32 0 2.64 0 4 0 C4.33 1.32 4.66 2.64 5 4 C8.3 4 11.6 4 15 4 C15.33 3.34 15.66 2.68 16 2 C16.99 2 17.98 2 19 2 C19 4.31 19 6.62 19 9 C17.35 9.33 15.7 9.66 14 10 C13.67 9.34 13.34 8.68 13 8 C11.02711197 7.53965946 9.05390863 7.08056203 7.078125 6.6328125 C4.10283096 5.72680191 2.17835413 4.17835413 0 2 C0 1.34 0 0.68 0 0 Z " fill="#194ADE" transform="translate(95,183)"/>
<path d="M0 0 C5.15924464 4.40053219 8.13973101 9.89612699 11 16 C11 16.66 11 17.32 11 18 C11.66 18 12.32 18 13 18 C13.66 21.63 14.32 25.26 15 29 C14.34 28.67 13.68 28.34 13 28 C13 27.34 13 26.68 13 26 C12.34 26 11.68 26 11 26 C10.01 22.04 9.02 18.08 8 14 C7.34 14 6.68 14 6 14 C5.67 12.02 5.34 10.04 5 8 C4.01 7.67 3.02 7.34 2 7 C0.8125 3.4375 0.8125 3.4375 0 0 Z " fill="#3B62C6" transform="translate(167,44)"/>
<path d="M0 0 C1.32 0.33 2.64 0.66 4 1 C3.67 1.66 3.34 2.32 3 3 C4.32 3 5.64 3 7 3 C7 3.66 7 4.32 7 5 C10.3 5.33 13.6 5.66 17 6 C17 5.34 17 4.68 17 4 C17.99 4 18.98 4 20 4 C20 3.34 20 2.68 20 2 C21.32 1.67 22.64 1.34 24 1 C22.59410807 4.39757217 21.13574625 6.07739219 18 8 C13.08153599 8.74766517 8.44766342 8.56771114 3.8125 6.75 C3.214375 6.1725 2.61625 5.595 2 5 C2 3.68 2 2.36 2 1 C1.34 0.67 0.68 0.34 0 0 Z " fill="#264FCA" transform="translate(78,95)"/>
<path d="M0 0 C4.55451516 1.43738827 7.54865243 4.01161208 10.9375 7.25 C11.72592285 7.98827026 11.72592285 7.98827026 12.53027344 8.74145508 C16.09172778 12.09039239 19.59067789 15.4959745 23 19 C22.67 19.66 22.34 20.32 22 21 C21.113125 20.030625 20.22625 19.06125 19.3125 18.0625 C16.67384791 15.39877758 14.85668285 14.2268637 11 14 C10.87625 12.576875 10.87625 12.576875 10.75 11.125 C10.35220672 7.96279175 10.35220672 7.96279175 8.25 6.75 C6.60623812 6.20207937 4.96005321 5.66141267 3.3125 5.125 C1 4 1 4 0.1875 1.875 C0.125625 1.25625 0.06375 0.6375 0 0 Z " fill="#2C53BB" transform="translate(144,23)"/>
<path d="M0 0 C1.10469805 1.65704707 2.19099633 3.32876418 3.19140625 5.05078125 C8.7296586 14.18653086 15.79387538 17.96806054 25.8125 21.140625 C28 22 28 22 29 24 C18.63349884 22.206161 9.43635796 17.45117142 2 10 C-0.11997239 6.5779458 -0.18217263 4.00779779 0 0 Z " fill="#2C51B8" transform="translate(63,107)"/>
<path d="M0 0 C6.06649576 0.48071562 10.58425147 1.84385884 16 4.5625 C17.01900391 5.0565332 17.01900391 5.0565332 18.05859375 5.56054688 C19.71078629 6.36337283 21.35615484 7.18021784 23 8 C19.70092122 9.09969293 18.29093739 8.90192008 14.9375 8.25 C13.62072266 8.01023437 13.62072266 8.01023437 12.27734375 7.765625 C10 7 10 7 8 4 C6.04614933 3.21011855 6.04614933 3.21011855 3.875 2.8125 C2.59625 2.544375 1.3175 2.27625 0 2 C0 1.34 0 0.68 0 0 Z M9 7 C9.33 7.66 9.66 8.32 10 9 C9.34 8.67 8.68 8.34 8 8 C8.33 7.67 8.66 7.34 9 7 Z " fill="#204BC1" transform="translate(121,14)"/>
<path d="M0 0 C3.53790403 3.69172595 3.59115883 7.09390595 4 12 C-1.52713888 9.33512947 -6.99611883 6.57990435 -12 3 C-12 2.67 -12 2.34 -12 2 C-10.02 2 -8.04 2 -6 2 C-6 2.99 -6 3.98 -6 5 C-4.02 5.66 -2.04 6.32 0 7 C0 4.69 0 2.38 0 0 Z " fill="#3659C2" transform="translate(123,193)"/>
<path d="M0 0 C1.32 0.33 2.64 0.66 4 1 C3.34 1.66 2.68 2.32 2 3 C1.72313935 5.03467434 1.72313935 5.03467434 1.8046875 7.3515625 C1.81113281 8.20234375 1.81757812 9.053125 1.82421875 9.9296875 C1.84097656 10.81914063 1.85773437 11.70859375 1.875 12.625 C1.88402344 13.5221875 1.89304688 14.419375 1.90234375 15.34375 C1.9259503 17.56276586 1.9588769 19.78125077 2 22 C1.34 21.67 0.68 21.34 0 21 C-0.37890625 17.9453125 -0.37890625 17.9453125 -0.5625 14.125 C-0.79531842 8.97193974 -0.79531842 8.97193974 -2 4 C-1.0625 1.8125 -1.0625 1.8125 0 0 Z " fill="#174AD1" transform="translate(59,80)"/>
<path d="M0 0 C0.928125 0.37125 1.85625 0.7425 2.8125 1.125 C3.864375 1.41375 4.91625 1.7025 6 2 C6.99 1.34 7.98 0.68 9 0 C8.95875 0.763125 8.9175 1.52625 8.875 2.3125 C8.77919176 5.22718416 8.77919176 5.22718416 11 8 C11.99 8.33 12.98 8.66 14 9 C14 9.66 14 10.32 14 11 C14.66 11.33 15.32 11.66 16 12 C15.01 12.495 15.01 12.495 14 13 C8.66268841 9.06969212 4.00808771 5.30101923 0 0 Z " fill="#194BC7" transform="translate(38,154)"/>
<path d="M0 0 C0.99 0.33 1.98 0.66 3 1 C2.5557991 5.35936698 -0.32447469 7.73361199 -3.3125 10.625 C-3.79912109 11.11484375 -4.28574219 11.6046875 -4.78710938 12.109375 C-7.33841979 14.62291366 -9.66069819 16.65158834 -13 18 C-12.505 16.515 -12.505 16.515 -12 15 C-11.34 15 -10.68 15 -10 15 C-10 14.34 -10 13.68 -10 13 C-9.34 13 -8.68 13 -8 13 C-7.95875 12.236875 -7.9175 11.47375 -7.875 10.6875 C-7.441875 9.3571875 -7.441875 9.3571875 -7 8 C-5 7 -3 6 -1 5 C-0.03093173 2.41585574 -0.03093173 2.41585574 0 0 Z " fill="#2851BF" transform="translate(162,147)"/>
<path d="M0 0 C1.68178661 2.52267991 2.90106742 4.81091823 4.125 7.5625 C4.47820312 8.34753906 4.83140625 9.13257813 5.1953125 9.94140625 C6 12 6 12 6 14 C6.66 14 7.32 14 8 14 C8.33 15.65 8.66 17.3 9 19 C6.6875 18.4375 6.6875 18.4375 4 17 C0.8299013 11.56554509 0.36222494 6.20778608 0 0 Z " fill="#395ECA" transform="translate(114,174)"/>
<path d="M0 0 C5.90847823 0.98862333 11.78350886 2.10670466 17.625 3.4375 C18.62789062 3.66308594 19.63078125 3.88867188 20.6640625 4.12109375 C21.43492188 4.41113281 22.20578125 4.70117188 23 5 C23.33 5.99 23.66 6.98 24 8 C25.29355827 9.37195574 26.62298702 10.71182656 28 12 C24.79419749 10.89800539 22.24825232 9.49559273 19.5 7.5625 C14.90096808 4.56696197 10.09624435 3.6852527 4.7578125 2.67578125 C2 2 2 2 0 0 Z " fill="#DBECFE" transform="translate(72,177)"/>
<path d="M0 0 C3.03209857 3.46779602 4.31860236 7.30738933 5.6875 11.625 C5.91244141 12.305625 6.13738281 12.98625 6.36914062 13.6875 C8 18.70400361 8 18.70400361 8 21 C7.01 20.67 6.02 20.34 5 20 C3.37676246 16.24092359 2.76005071 13.07913787 3 9 C2.01 9 1.02 9 0 9 C0.185625 8.443125 0.37125 7.88625 0.5625 7.3125 C1.07551165 4.600867 0.6640724 2.65628961 0 0 Z " fill="#345CC4" transform="translate(103,146)"/>
<path d="M0 0 C0.99 0.33 1.98 0.66 3 1 C3.33333333 2.33333333 3.66666667 3.66666667 4 5 C4.99 5.33 5.98 5.66 7 6 C7 5.01 7 4.02 7 3 C8.98 3 10.96 3 13 3 C9.80009492 5.74277578 6.99500618 7.6302836 3 9 C0 3.375 0 3.375 0 0 Z " fill="#3157BD" transform="translate(136,162)"/>
<path d="M0 0 C4.05456308 1.35152103 5.74845336 4.09613661 8.25 7.375 C8.72179687 7.96539062 9.19359375 8.55578125 9.6796875 9.1640625 C11.015625 10.8984375 11.015625 10.8984375 13 14 C12.67 14.99 12.34 15.98 12 17 C10.37076065 14.91986415 8.7465453 12.83612026 7.125 10.75 C6.66480469 10.16347656 6.20460938 9.57695313 5.73046875 8.97265625 C3.49615028 6.09070923 1.4532826 3.37428833 0 0 Z " fill="#DBEAFC" transform="translate(90,67)"/>
<path d="M0 0 C0.33 0 0.66 0 1 0 C1.22224251 2.58281836 1.42823488 5.16522187 1.625 7.75 C1.68945312 8.47960937 1.75390625 9.20921875 1.8203125 9.9609375 C2.10381649 13.85911736 2.27081383 16.70645322 0 20 C-0.99 19.67 -1.98 19.34 -3 19 C-2.68289062 18.32582031 -2.36578125 17.65164062 -2.0390625 16.95703125 C-0.81297609 13.46775527 -0.58180931 10.37559942 -0.375 6.6875 C-0.30023438 5.43324219 -0.22546875 4.17898437 -0.1484375 2.88671875 C-0.09945312 1.93410156 -0.05046875 0.98148437 0 0 Z " fill="#4B6ED4" transform="translate(126,90)"/>
<path d="M0 0 C2.58196629 1.83236317 3.84215448 3.31563481 4.55859375 6.421875 C4.85979834 8.99512903 5.13530866 11.41109439 5 14 C4.34 14.66 3.68 15.32 3 16 C2.67 12.37 2.34 8.74 2 5 C1.34 5 0.68 5 0 5 C0 3.35 0 1.7 0 0 Z " fill="#3557C2" transform="translate(99,80)"/>
<path d="M0 0 C1.875 0.1875 1.875 0.1875 4 1 C6.09242143 4.6617375 6.19324053 7.84532871 6 12 C2.83721473 9.89147648 2.48698821 9.38053749 1.3125 6 C1.06113281 5.29875 0.80976562 4.5975 0.55078125 3.875 C0 2 0 2 0 0 Z " fill="#2753CD" transform="translate(108,166)"/>
<path d="M0 0 C0.66 0.66 1.32 1.32 2 2 C-0.31 2.33 -2.62 2.66 -5 3 C-5.33 4.32 -5.66 5.64 -6 7 C-6.66 6.34 -7.32 5.68 -8 5 C-7.625 2.375 -7.625 2.375 -7 0 C-3.85179059 -1.04940314 -3.00659136 -1.066855 0 0 Z " fill="#1E4DC9" transform="translate(94,61)"/>
<path d="M0 0 C5.98808129 1.31445687 9.03429323 4.61191026 13 9 C12.67 9.66 12.34 10.32 12 11 C11.113125 10.030625 10.22625 9.06125 9.3125 8.0625 C6.67384791 5.39877758 4.85668285 4.2268637 1 4 C0.67 2.68 0.34 1.36 0 0 Z " fill="#264ECB" transform="translate(154,33)"/>
<path d="M0 0 C1.75211782 0.25677589 3.50167936 0.53102953 5.25 0.8125 C6.22453125 0.96332031 7.1990625 1.11414063 8.203125 1.26953125 C11.12322338 2.03218264 12.74205815 3.03774101 15 5 C12.8729989 4.74535902 10.74837785 4.47077058 8.625 4.1875 C7.44164062 4.03667969 6.25828125 3.88585937 5.0390625 3.73046875 C2 3 2 3 0 0 Z M1 3 C1.33 3.66 1.66 4.32 2 5 C1.34 4.67 0.68 4.34 0 4 C0.33 3.67 0.66 3.34 1 3 Z " fill="#1C4CD3" transform="translate(129,18)"/>
<path d="M0 0 C2.63886669 3.18483911 5.14494105 6.2898821 7 10 C6.67 10.99 6.34 11.98 6 13 C4.80286983 11.21475351 3.61752721 9.4215972 2.4375 7.625 C1.44556641 6.12839844 1.44556641 6.12839844 0.43359375 4.6015625 C-0.03949219 3.74304688 -0.51257813 2.88453125 -1 2 C-0.67 1.34 -0.34 0.68 0 0 Z " fill="#3257BD" transform="translate(24,133)"/>
<path d="M0 0 C5.80205656 5.64524422 5.80205656 5.64524422 8 9 C8 9.66 8 10.32 8 11 C7.01 11 6.02 11 5 11 C4.731875 10.21625 4.46375 9.4325 4.1875 8.625 C3.15185568 5.71885077 3.15185568 5.71885077 0 4 C0 2.68 0 1.36 0 0 Z " fill="#2E54C0" transform="translate(92,131)"/>
<path d="M0 0 C6.57142857 5 6.57142857 5 8 10 C3.15544041 7.70984456 3.15544041 7.70984456 1 6 C0.0625 2.75 0.0625 2.75 0 0 Z " fill="#1C4ADC" transform="translate(161,39)"/>
<path d="M0 0 C0 0.66 0 1.32 0 2 C-0.5775 2.2475 -1.155 2.495 -1.75 2.75 C-4.14236467 3.92330271 -4.14236467 3.92330271 -6 6.1875 C-6.66 6.785625 -7.32 7.38375 -8 8 C-10.125 7.61328125 -10.125 7.61328125 -12 7 C-10.3790787 5.82767315 -8.75313167 4.6622923 -7.125 3.5 C-6.22007813 2.8503125 -5.31515625 2.200625 -4.3828125 1.53125 C-2 0 -2 0 0 0 Z " fill="#365AC0" transform="translate(58,21)"/>
<path d="M0 0 C4.16138263 -0.08159574 7.9472484 0.01751476 12 1 C12 1.33 12 1.66 12 2 C8.37 2 4.74 2 1 2 C0.67 2.66 0.34 3.32 0 4 C0 2.68 0 1.36 0 0 Z " fill="#BAD4F9" transform="translate(89,63)"/>
<path d="M0 0 C0.99 0.33 1.98 0.66 3 1 C2.38125 1.2475 1.7625 1.495 1.125 1.75 C-1.39578467 3.23281451 -1.7852998 4.40863958 -3 7 C-3.99 7.66 -4.98 8.32 -6 9 C-5.52797514 4.75177626 -3.03344482 2.80010291 0 0 Z " fill="#CEDDF8" transform="translate(40,31)"/>
<path d="M0 0 C2.31966166 2.84685749 3.91581154 5.4763875 5 9 C4.67 9.99 4.34 10.98 4 12 C3.67 11.34 3.34 10.68 3 10 C2.01 9.67 1.02 9.34 0 9 C0.185625 8.443125 0.37125 7.88625 0.5625 7.3125 C1.07551165 4.600867 0.6640724 2.65628961 0 0 Z " fill="#A2B9EE" transform="translate(103,146)"/>
<path d="M0 0 C2.96052484 3.36423277 3.92289822 6.69159287 5 11 C2 10 2 10 0.8125 7.75 C0.00061706 5.00208853 -0.16260121 2.84552111 0 0 Z " fill="#3759C5" transform="translate(100,142)"/>
<path d="M0 0 C0.66 0.33 1.32 0.66 2 1 C2 4.3 2 7.6 2 11 C1.01 10.01 0.02 9.02 -1 8 C-1 5.16032769 -0.59732819 2.76264289 0 0 Z " fill="#1A4CD1" transform="translate(180,72)"/>
<path d="M0 0 C3.53790403 3.69172595 3.59115883 7.09390595 4 12 C2.68 11.34 1.36 10.68 0 10 C0.185625 9.278125 0.37125 8.55625 0.5625 7.8125 C1.01995307 4.87173027 0.73516357 2.85896942 0 0 Z " fill="#839ACD" transform="translate(123,193)"/>
<path d="M0 0 C1.32 0 2.64 0 4 0 C4.103125 0.639375 4.20625 1.27875 4.3125 1.9375 C4.539375 2.618125 4.76625 3.29875 5 4 C5.99 4.33 6.98 4.66 8 5 C7.67 5.66 7.34 6.32 7 7 C5.82780457 6.21654285 4.66236332 5.42297164 3.5 4.625 C2.8503125 4.18414062 2.200625 3.74328125 1.53125 3.2890625 C1.0259375 2.86367187 0.520625 2.43828125 0 2 C0 1.34 0 0.68 0 0 Z " fill="#2E54C4" transform="translate(95,183)"/>
<path d="M0 0 C1.32 0 2.64 0 4 0 C4.33 0.99 4.66 1.98 5 3 C6.29355827 4.37195574 7.62298702 5.71182656 9 7 C5.56072421 5.7580393 2.74792181 4.44259716 0 2 C0 1.34 0 0.68 0 0 Z " fill="#98B0E5" transform="translate(91,182)"/>
<path d="M0 0 C0.763125 0.309375 1.52625 0.61875 2.3125 0.9375 C4.18789677 1.67893593 6.08684652 2.36228217 8 3 C8 3.66 8 4.32 8 5 C8.66 5.33 9.32 5.66 10 6 C9.01 6.495 9.01 6.495 8 7 C6.66382648 6.02471263 5.3311249 5.04466681 4 4.0625 C3.2575 3.51722656 2.515 2.97195312 1.75 2.41015625 C1.1725 1.94480469 0.595 1.47945312 0 1 C0 0.67 0 0.34 0 0 Z " fill="#3558C2" transform="translate(44,160)"/>
<path d="M0 0 C2.45823172 3.68734758 3.01242616 6.69699971 4 11 C2.29159719 9.36587557 1.06546953 8.13093906 0 6 C-0.039992 4.00039988 -0.04346799 1.99952758 0 0 Z " fill="#3159CC" transform="translate(63,107)"/>
<path d="M0 0 C-0.33 0.66 -0.66 1.32 -1 2 C-1.99 1.67 -2.98 1.34 -4 1 C-4.33 2.98 -4.66 4.96 -5 7 C-5.33 7 -5.66 7 -6 7 C-6.33 4.69 -6.66 2.38 -7 0 C-4.3333581 -1.33332095 -2.83319697 -0.67102033 0 0 Z " fill="#375BCB" transform="translate(67,82)"/>
<path d="M0 0 C1.32 0.33 2.64 0.66 4 1 C4.33 2.65 4.66 4.3 5 6 C2.525 5.01 2.525 5.01 0 4 C0 2.68 0 1.36 0 0 Z " fill="#6E8FE1" transform="translate(118,187)"/>
<path d="M0 0 C2 1 2 1 2.6328125 2.84765625 C2.79523438 3.57855469 2.95765625 4.30945313 3.125 5.0625 C3.29257813 5.79597656 3.46015625 6.52945313 3.6328125 7.28515625 C3.75398437 7.85105469 3.87515625 8.41695312 4 9 C3.34 8.67 2.68 8.34 2 8 C2 7.34 2 6.68 2 6 C1.34 6 0.68 6 0 6 C0 4.02 0 2.04 0 0 Z " fill="#2E5AC1" transform="translate(178,64)"/>
</svg>
